
        <svg xmlns="http://www.w3.org/2000/svg" xmlns:xlink="http://www.w3.org/1999/xlink" version="1.1" width="3206.896551724138" height="2559.32992258657" viewBox="0 0 3206.896551724138 2559.32992258657">
			
			<g transform="scale(10.344827586206897) translate(10, 10)">
				<defs id="SvgjsDefs1456"><linearGradient id="SvgjsLinearGradient1465"><stop id="SvgjsStop1466" stop-color="#8f5e25" offset="0"/><stop id="SvgjsStop1467" stop-color="#fbf4a1" offset="0.5"/><stop id="SvgjsStop1468" stop-color="#8f5e25" offset="1"/></linearGradient><linearGradient id="SvgjsLinearGradient1469"><stop id="SvgjsStop1470" stop-color="#8f5e25" offset="0"/><stop id="SvgjsStop1471" stop-color="#fbf4a1" offset="0.5"/><stop id="SvgjsStop1472" stop-color="#8f5e25" offset="1"/></linearGradient><linearGradient id="SvgjsLinearGradient1473"><stop id="SvgjsStop1474" stop-color="#8f5e25" offset="0"/><stop id="SvgjsStop1475" stop-color="#fbf4a1" offset="0.5"/><stop id="SvgjsStop1476" stop-color="#8f5e25" offset="1"/></linearGradient><linearGradient id="SvgjsLinearGradient1477"><stop id="SvgjsStop1478" stop-color="#8f5e25" offset="0"/><stop id="SvgjsStop1479" stop-color="#fbf4a1" offset="0.5"/><stop id="SvgjsStop1480" stop-color="#8f5e25" offset="1"/></linearGradient></defs><g id="SvgjsG1457" featureKey="symbolContainer" transform="matrix(0.6181798577308655,0,0,0.6181798577308655,83,0)" fill="#fff"><path xmlns="http://www.w3.org/2000/svg" d="M100.254 0C44.974 0 0 44.974 0 100.254s44.974 100.254 100.254 100.254c55.28 0 100.254-44.974 100.254-100.254S155.534 0 100.254 0zm0 195.508C47.731 195.508 5 152.777 5 100.254S47.731 5 100.254 5s95.254 42.73 95.254 95.254-42.731 95.254-95.254 95.254z"/></g><g id="SvgjsG1458" featureKey="monogramFeature-0" transform="matrix(1.5673552751541138,0,0,1.5673552751541138,105.46885895040896,1.4584118352032043)" fill="#fff"><path d="M30.791 60 l-12.158 -17.285 l-2.666 0 l0 17.285 l-11.162 0 l0 -43.066 l11.162 0 l0 16.113 l2.5781 0 l12.598 -16.113 l13.564 0 l-16.494 20.625 l16.787 22.441 l-14.209 0 z"/></g><g id="SvgjsG1459" featureKey="nameFeature-0" transform="matrix(1.8620299100875854,0,0,1.8620299100875854,-5.958492848520486,122.40045177062164)" fill="#fff"><path d="M24.56 12 l-9.84 12.24 l9.72 15.76 l-5.08 0 l-7.6 -12.08 l-4.24 5.28 l0 6.8 l-4.32 0 l0 -28 l4.32 0 l0 14.52 l11.76 -14.52 l5.28 0 z M52.336 35.84 l0.28 4.16 l-17.16 0 l0 -28 l16.36 0 l0.32 4.16 l-12.36 0 l0 5.96 l8.16 0 l0 4.16 l-8.16 0 l0 9.56 l12.56 0 z M85.632 12 l-9.8 15.64 l0 12.36 l-4.32 0 l0 -12.36 l-9.8 -15.64 l4.88 0 l7.08 11.4 l7.08 -11.4 l4.88 0 z M73.712 26.6 l-0.04 -0.04 l-0.04 0.04 l0.08 0 z M123.04800000000002 11.600000000000001 l0.48 0 l0 28.4 l-4.28 0 l0 -17.12 l-9.2 11.48 l-0.24 0 l-9.2 -11.48 l0 17.12 l-4.28 0 l0 -28.4 l0.48 0 l13.12 15.88 z M154.304 40 l-2.2 -5.12 l-11.44 0 l-2.2 5.12 l-4.64 0 l12.32 -28.4 l0.48 0 l12.32 28.4 l-4.64 0 z M142.38400000000001 30.880000000000003 l8 0 l-4 -9.28 z"/></g><g id="SvgjsG1460" featureKey="sloganFeature-0" transform="matrix(1.250153660774231,0,0,1.250153660774231,33.87461588916024,202.97389154630716)" fill="#fff"><path d="M11.14 18.76 l0 -8.92 l-3.18 9 c-0.18 0.5 -0.84 0.62 -1.04 0 l-3.08 -9 l0 8.92 c0 0.42 -0.32 0.64 -0.66 0.64 s-0.68 -0.22 -0.68 -0.64 l0 -10.74 c0 -0.38 0.28 -0.66 0.68 -0.66 l0.64 0 c0.44 0 0.68 0.32 0.78 0.62 c0.96 2.86 1.84 5.4 2.82 8.28 l2.9 -8.34 c0.1 -0.28 0.28 -0.56 0.7 -0.56 l0.8 0 c0.58 0 0.66 0.32 0.66 0.64 l0 10.76 c0 0.42 -0.34 0.64 -0.68 0.64 s-0.66 -0.22 -0.66 -0.64 z  M19.667 15.86 l0 -7.86 c0 -0.42 0.34 -0.64 0.66 -0.64 c0.34 0 0.66 0.22 0.66 0.64 l0 7.86 c0 1.44 0.98 2.3 2.34 2.3 l0.5 0 c1.4 0 2.36 -0.98 2.36 -2.3 l0 -7.86 c0 -0.42 0.32 -0.64 0.66 -0.64 c0.32 0 0.66 0.22 0.66 0.64 l0 7.86 c0 2.06 -1.46 3.64 -3.68 3.64 l-0.5 0 c-2.22 0 -3.66 -1.54 -3.66 -3.64 z M34.333999999999996 17.68 c-0.44 -0.82 0.68 -1.42 1.2 -0.6 c0.26 0.42 1.04 1.14 2.28 1.14 c0.52 0 1.82 -0.38 2 -1.86 c0.12 -0.9 -0.74 -1.78 -2.22 -2.52 c-2.08 -0.98 -3.66 -1.84 -3.66 -3.56 c0 -2.04 1.72 -3 3.56 -3 c1.66 0 2.58 1.02 2.9 1.54 c0.46 0.74 -0.54 1.46 -1.1 0.74 c-0.28 -0.36 -0.82 -0.96 -1.8 -0.96 c-1.1 0 -2.24 0.52 -2.24 1.68 c0 0.92 1.02 1.44 2.54 2.16 c1.78 0.88 3.64 1.74 3.36 4.08 c-0.22 1.84 -1.62 3.02 -3.34 3.02 c-1.3 0 -2.9 -0.7 -3.48 -1.86 z M47.861 18.78 l0 -10.78 c0 -0.42 0.32 -0.64 0.64 -0.64 s0.66 0.22 0.66 0.64 l0 10.78 c0 0.86 -1.3 0.86 -1.3 0 z M60.047999999999995 7.32 c1.82 0 3.76 0.7 3.76 2.76 c0 0.48 -0.32 0.7 -0.66 0.7 s-0.7 -0.24 -0.7 -0.7 c0 -0.16 -0.1 -1.46 -2.4 -1.46 c-1.82 0 -2.62 0.72 -2.62 2.44 l0 4.82 c0 1.74 0.98 2.28 2.62 2.28 c1.66 0 2.58 -0.68 2.58 -2.3 c0 -0.46 0.34 -0.68 0.66 -0.68 c0.34 0 0.66 0.22 0.66 0.68 c0 2.7 -1.5 3.6 -3.9 3.6 c-2.6 0 -3.92 -0.96 -3.92 -3.58 l0 -4.82 c0 -2.84 1.42 -3.74 3.92 -3.74 z M80.302 7.359999999999999 l6.04 0 c0.42 0 0.62 0.34 0.62 0.68 s-0.2 0.66 -0.62 0.66 l-2.28 0 l0 10.06 c0 0.42 -0.34 0.64 -0.68 0.64 s-0.66 -0.22 -0.66 -0.64 l0 -10.06 l-2.42 0 c-0.42 0 -0.62 -0.32 -0.62 -0.66 s0.2 -0.68 0.62 -0.68 z M93.24900000000001 15.86 l0 -4.96 c0 -2.4 1.24 -3.68 3.64 -3.68 l0.52 0 c2.38 0 3.64 1.28 3.64 3.68 l0 4.96 c0 2.2 -1.46 3.64 -3.64 3.64 l-0.52 0 c-2.22 0 -3.64 -1.46 -3.64 -3.64 z M96.88900000000001 18.16 l0.52 0 c1.44 0 2.3 -0.9 2.3 -2.3 l0 -4.96 c0 -1.56 -0.76 -2.36 -2.3 -2.36 l-0.52 0 c-1.52 0 -2.36 0.82 -2.36 2.36 l0 4.96 c0 1.46 0.92 2.3 2.36 2.3 z M114.876 8 l0 10.76 c0 0.42 -0.32 0.64 -0.64 0.64 c-0.24 0 -0.56 -0.18 -0.7 -0.44 c-1.5 -2.94 -2.62 -5.2 -4.12 -8.16 l0 7.96 c0 0.42 -0.32 0.64 -0.66 0.64 c-0.32 0 -0.66 -0.22 -0.66 -0.64 l0 -10.76 c0 -0.7 1 -0.74 1.22 -0.32 l4.22 8.34 l0 -8.02 c0 -0.42 0.32 -0.64 0.66 -0.64 s0.68 0.22 0.68 0.64 z M128.083 18.86 l-0.78 -2.54 l-3.72 0 l-0.74 2.5 c-0.26 0.86 -1.58 0.6 -1.3 -0.28 c1.04 -3.5 2.06 -7.06 3.08 -10.6 c0.12 -0.38 0.44 -0.58 0.76 -0.58 c0.3 0 0.62 0.2 0.74 0.58 l3.18 10.6 c0.22 0.76 -0.96 1.18 -1.22 0.32 z M125.423 10.06 l-1.44 4.92 l2.94 0 c-0.5 -1.68 -0.96 -3.12 -1.5 -4.92 z M135.99 18.76 l0 -10.76 c0 -0.42 0.32 -0.64 0.64 -0.64 s0.66 0.22 0.66 0.64 l0 10.06 l3.98 0 c0.44 0 0.68 0.34 0.68 0.68 s-0.24 0.66 -0.68 0.66 l-4.62 0 c-0.4 0 -0.66 -0.32 -0.66 -0.64 z M148.157 18.78 l0 -10.78 c0 -0.42 0.32 -0.64 0.64 -0.64 s0.66 0.22 0.66 0.64 l0 10.78 c0 0.86 -1.3 0.86 -1.3 0 z M156.34400000000002 7.359999999999999 l6.04 0 c0.42 0 0.62 0.34 0.62 0.68 s-0.2 0.66 -0.62 0.66 l-2.28 0 l0 10.06 c0 0.42 -0.34 0.64 -0.68 0.64 s-0.66 -0.22 -0.66 -0.64 l0 -10.06 l-2.42 0 c-0.42 0 -0.62 -0.32 -0.62 -0.66 s0.2 -0.68 0.62 -0.68 z M175.19100000000003 8.3 l-2.48 5.14 l0 5.32 c0 0.44 -0.32 0.64 -0.64 0.64 c-0.34 0 -0.66 -0.22 -0.66 -0.64 l0 -5.32 l-2.54 -5.12 c-0.42 -0.88 0.8 -1.4 1.22 -0.56 l1.98 3.96 l1.9 -3.94 c0.44 -0.92 1.64 -0.34 1.22 0.52 z"/></g>
			</g>
		</svg>
	